<?xml version="1.0" encoding="utf-8"?>
<!-- Generator: Adobe Illustrator 19.0.0, SVG Export Plug-In . SVG Version: 6.00 Build 0)  -->
<svg version="1.1" id="Layer_1" xmlns="http://www.w3.org/2000/svg" xmlns:xlink="http://www.w3.org/1999/xlink" x="0px" y="0px"
	 viewBox="0 0 2000 2000" style="enable-background:new 0 0 2000 2000;" xml:space="preserve">
<style type="text/css">
	.st0{fill:#EC1E52;}
	.st1{fill:#FFFFFF;}
</style>
<g id="XMLID_3_">
	<path id="path27278" class="st0" d="M520.9,818.3L743.1,755c0,0-2.3-14.9-10.3-22c-8.1-7.4-22.3-11.6-22.3-11.6L401.7,609.4
		c0,0-9.7-3.2-17.1,0.6c-7.4,3.9-6.8,14.2-6.8,14.2v143.7c0,0-0.6,13.9,19.1,44.6c20,30.7,67.2,22.9,67.2,22.9L520.9,818.3z"/>
	<path id="path27260" class="st0" d="M1405.5,471.8l206.7-115.6c0,0,3.2-20-4.8-27.1c-8.1-7.4-17.4-9.4-17.4-9.4L697.6,1.3
		c0,0-9.7-3.2-17.1,0.6c-7.4,3.9-6.8,14.2-6.8,14.2v123.7c0,0,0,28.7,19.7,59.4c20,30.7,52.3,38.8,52.3,38.8L1405.5,471.8z"/>
	<path id="path27258" class="st0" d="M1405.5,832.2l206.7-106.9c0,0,4.5-27.1-3.6-34.2c-8.1-7.4-18.7-11-18.7-11L401.7,248
		c0,0-9.7-3.2-17.1,0.6c-7.4,3.9-6.8,14.2-6.8,14.2v123.7c0,0,0,28.7,19.7,59.4c20,30.7,52.3,38.8,52.3,38.8L1405.5,832.2z"/>
</g>
<g id="XMLID_2_">
	<path id="path27194" class="st1" d="M1589.6,319.4c0,0,11.9,1.9,22.3,11.6c10.3,10,10.3,22,10.3,22V517c0,0-0.6,22.3-9.7,42.6
		c-9,20-22.6,24.9-22.6,24.9l-28.1,10L670.1,918.8c0,0-4.2,1.3-10,1.3c-5.5,0-10-1.3-10-1.3l-248.3-90.1c0,0-6.1-1.3-14.9-15.2
		c-9.7-15.5-9-45.9-9-45.9s1.6,15.5,10.3,22.9c8.7,7.4,32.3-0.6,32.3-0.6l1141.3-414.7c0,0,45.2-18.4,45.2-37.1
		C1607.3,324.9,1589.6,319.4,1589.6,319.4L1589.6,319.4z"/>
	<path id="path27140" class="st1" d="M1589.6,679.5c0,0,11.9,1.9,22.3,11.6c10.3,10,10.3,22,10.3,22v164.1c0,0-0.6,22.3-9.7,42.6
		c-9,20-22.6,24.9-22.6,24.9l-28.1,10l-892,323.9v-219.6l892-323.9c0,0,45.2-18.4,45.2-37.1C1607.3,685.3,1589.6,679.5,1589.6,679.5
		L1589.6,679.5z"/>
	<path id="path27142" class="st1" d="M1146.8,1256.6c8.4,8.4,8.4,27.5,8.4,27.5v122.7c0,0-0.6,22.3-9.7,42.6
		c-9,20.3-22.6,24.9-22.6,24.9l-28.1,10l-425,154.4V1419l425-154.4C1095.1,1264.3,1138.4,1247.8,1146.8,1256.6L1146.8,1256.6z"/>
	<path id="path27168" class="st1" d="M872.6,1714.8c8.4,8.4,8.4,27.5,8.4,27.5V1865c0,0-0.6,22.3-9.7,42.6
		c-9,20.3-22.6,24.9-22.6,24.9l-28.1,10L669.8,2000v-219.6l150.8-57.5C820.9,1722.6,864.2,1706.4,872.6,1714.8L872.6,1714.8z"/>
</g>
</svg>
