<?xml version="1.0" encoding="utf-8"?>
<!-- Generator: Adobe Illustrator 19.0.0, SVG Export Plug-In . SVG Version: 6.00 Build 0)  -->
<svg version="1.1"
	 id="svg26389" xmlns:dc="http://purl.org/dc/elements/1.1/" xmlns:cc="http://creativecommons.org/ns#" xmlns:rdf="http://www.w3.org/1999/02/22-rdf-syntax-ns#"
	 xmlns="http://www.w3.org/2000/svg" xmlns:xlink="http://www.w3.org/1999/xlink" x="0px" y="0px" viewBox="1029 82 2670 630"
	 style="enable-background:new 1029 82 2670 630;" xml:space="preserve">
<style type="text/css">
	.st0{fill:#FFFFFF;}
	.st1{fill:#ED1651;}
</style>
<g>
	<path id="path27116" class="st0" d="M3164.9,552l80.2-310h88.7c0,0,22.5-2.2,34.1,7c11.6,9.2,14.8,23.3,14.8,23.3l48.2,150
		l62.9-180.3h85.8c0,0,21.3,0,32.4,8.7s14.4,21.7,14.4,21.7l70.3,279.7h-83.3l-62.9-238.4l-66,181.7h-88.3c0,0-10.6,1-20.8-5.8
		c-10.2-6.9-10.5-13.2-10.5-13.2l-53.8-162.7l-61.7,238.4L3164.9,552z"/>
	<path id="path27065" class="st0" d="M2338.7,242v61.8l148.8,10V552h86V313.8l148.8-10V242L2338.7,242z"/>
	<path id="path27022" class="st0" d="M2091.3,242l-155,310h95.3l27.1-57h172.8l26.5,57h94.7l-147-289.7c0,0-4.8-10.7-13.1-15.4
		c-8.3-4.8-17.1-4.9-17.1-4.9L2091.3,242L2091.3,242z M2144,308.9l57,123.1h-114.8L2144,308.9L2144,308.9z"/>
	<path id="path26992" class="st0" d="M1609,242v310h261.7l35.7-71.3h-207.7V242L1609,242z"/>
	<path id="path27070" class="st0" d="M2864.3,242l-155,310h95.3l27.1-57h172.8l26.5,57h94.7l-147.1-289.7c0,0-4.8-10.7-13.1-15.4
		c-8.3-4.8-17.1-4.9-17.1-4.9L2864.3,242L2864.3,242z M2916.9,308.9l57,123.1h-114.8L2916.9,308.9L2916.9,308.9z"/>
</g>
<g>
	<path id="path27278" class="st1" d="M1076.3,341.6l68.8-19.6c0,0-0.7-4.6-3.2-6.8c-2.5-2.3-6.9-3.6-6.9-3.6l-95.6-34.7
		c0,0-3-1-5.3,0.2c-2.2,1.2-2.1,4.4-2.1,4.4v44.5c0,0-0.2,4.3,5.9,13.8c6.2,9.5,20.8,7.1,20.8,7.1L1076.3,341.6z"/>
	<path id="path27260" class="st1" d="M1350.2,234.4l64-35.8c0,0,1-6.2-1.5-8.4c-2.5-2.3-5.4-2.9-5.4-2.9l-276.3-98.6
		c0,0-3-1-5.3,0.2s-2.1,4.4-2.1,4.4v38.3c0,0,0,8.9,6.1,18.4c6.2,9.5,16.2,12,16.2,12L1350.2,234.4z"/>
	<path id="path27258" class="st1" d="M1350.2,345.9l64-33.1c0,0,1.4-8.4-1.1-10.6c-2.5-2.3-5.8-3.4-5.8-3.4l-367.8-133.6
		c0,0-3-1-5.3,0.2s-2.1,4.4-2.1,4.4V208c0,0,0,8.9,6.1,18.4c6.2,9.5,16.2,12,16.2,12L1350.2,345.9z"/>
</g>
<g>
	<path id="path27194" class="st0" d="M1407.2,187.1c0,0,3.7,0.6,6.9,3.6s3.2,6.8,3.2,6.8v50.8c0,0-0.2,6.9-3,13.2
		c-2.8,6.2-7,7.7-7,7.7l-8.7,3.1l-276.2,100.3c0,0-1.3,0.4-3.1,0.4s-3.1-0.4-3.1-0.4l-76.9-27.9c0,0-1.9-0.4-4.6-4.7
		c-3.1-4.8-2.8-14.2-2.8-14.2s0.5,4.8,3.2,7.1s10-0.2,10-0.2l353.4-128.4c0,0,14-5.7,14-11.5
		C1412.7,188.8,1407.2,187.1,1407.2,187.1L1407.2,187.1z"/>
	<path id="path27140" class="st0" d="M1407.2,298.7c0,0,3.7,0.6,6.9,3.6s3.2,6.8,3.2,6.8v50.8c0,0-0.2,6.9-3,13.2
		c-2.8,6.2-7,7.7-7,7.7l-8.7,3.1l-276.2,100.3v-68L1398.7,316c0,0,14-5.7,14-11.5C1412.7,300.4,1407.2,298.7,1407.2,298.7
		L1407.2,298.7z"/>
	<path id="path27142" class="st0" d="M1270.1,477.3c2.6,2.6,2.6,8.5,2.6,8.5v38c0,0-0.2,6.9-3,13.2s-7,7.7-7,7.7l-8.7,3.1
		l-131.6,47.8v-68l131.6-47.8C1254.1,479.8,1267.5,474.7,1270.1,477.3L1270.1,477.3z"/>
	<path id="path27168" class="st0" d="M1185.2,619.2c2.6,2.6,2.6,8.5,2.6,8.5v38c0,0-0.2,6.9-3,13.2s-7,7.7-7,7.7l-8.7,3.1
		l-46.7,17.8v-68l46.7-17.8C1169.2,621.7,1182.6,616.6,1185.2,619.2L1185.2,619.2z"/>
</g>
</svg>
